<svg xmlns="http://www.w3.org/2000/svg" xmlns:xlink="http://www.w3.org/1999/xlink" width="379.184" height="328.063" viewBox="0 0 379.184 328.063">
  <defs>
    <linearGradient id="linear-gradient" y1="0.125" x2="0.892" y2="0.812" gradientUnits="objectBoundingBox">
      <stop offset="0" stop-color="#75c7c0"/>
      <stop offset="0.696" stop-color="#1a85bf"/>
      <stop offset="1" stop-color="#2765b0"/>
    </linearGradient>
  </defs>
  <path id="Sustracción_2" data-name="Sustracción 2" d="M100.455,328.063c-2.407,0-4.772-.052-7.029-.156-39.66-1.817-79.162-15.661-90.324-19.86,8.387,3.043,31.277,10.126,62.634,10.126a207.9,207.9,0,0,0,46.725-5.336c56.506-13.052,78.749-25.231,123.507-54.2v16.407h17.779V252.789c13.8-1.41,24.786-6.112,32.651-13.977,6.829-6.83,10.748-15.572,11.647-25.982,22.288-19.888,42.449-41.51,55.437-56.146,14.057-15.84,22.99-27.158,23.078-27.271l-.017.05.033-.051.007-.011.028-.045.023.123.032.175.005.031A157.884,157.884,0,0,1,221.2,316a159.444,159.444,0,0,1-29.2-2.693C171.684,318.818,132.772,328.063,100.455,328.063ZM2.932,307.985C1.193,307.35.2,306.932.018,306.855c.163.066,1.191.478,2.914,1.128ZM105.1,221.42a123.974,123.974,0,0,1-15.271-.887,106.187,106.187,0,0,1-29.716-8.326A122.829,122.829,0,0,1,37.7,199.255a126.844,126.844,0,0,1-14.155-11.919c-3.194-3.133-4.915-5.21-4.932-5.23a132.788,132.788,0,0,0,20.728,14.141c11.969,6.765,31.013,15.426,53.773,18.27a163.985,163.985,0,0,0,20.166,1.158c30.416,0,62.466-6.887,74.834-9.848.012.156.025.321.043.534-7.889,2.519-20.352,6.173-34.923,9.283C135.273,219.475,119.08,221.419,105.1,221.42Zm1-14.831c-4.529,0-8.795-.131-12.677-.391-6.485-.432-18.12-2.545-29.5-6.29A103.917,103.917,0,0,1,46.78,192.66,49.372,49.372,0,0,1,33.254,182.4a58.579,58.579,0,0,1-12.9-23.512,50.382,50.382,0,0,1-1.688-10.537,41.363,41.363,0,0,1,.441-8.74,57.086,57.086,0,0,1,4.71-16.09c3.163-6.774,8.2-14.293,15.859-23.663A179.556,179.556,0,0,1,52.966,85.452C57,81.493,61.419,77.461,66.088,73.468c7.941-6.791,13.958-11.184,14.018-11.227-.062.072-8.1,9.264-16.73,20.366-8.025,10.325-18.338,24.6-21.9,33.966-7.022,18.485-7.021,34.417,0,50.138,1.475,3.3,4.564,6.436,9.18,9.313a72.15,72.15,0,0,0,14.447,6.58,159.612,159.612,0,0,1,1.3-56.445,157.116,157.116,0,0,1,23.774-56.5A158.451,158.451,0,0,1,159.7,12.416,157.184,157.184,0,0,1,189.361,3.21a159.012,159.012,0,0,1,84.011,5.609A158.472,158.472,0,0,1,373.909,117.373c-1.3.741-2.841,1.6-4.451,2.486l-57.891,33.336c-.135.072-13.709,7.329-34.3,16.054-1.794-1.214-3.726-2.394-5.743-3.508a204.113,204.113,0,0,0-21.973-10.12c-8.867-3.562-15.018-7.1-18.282-10.511a16.877,16.877,0,0,1-3.69-5.982,22.564,22.564,0,0,1-1.23-7.659,24.775,24.775,0,0,1,1.258-8.177,16.807,16.807,0,0,1,3.774-6.192,16.016,16.016,0,0,1,6.066-3.9,23.685,23.685,0,0,1,8.135-1.3,20.249,20.249,0,0,1,8.344,1.663,17.989,17.989,0,0,1,6.472,4.99,22.1,22.1,0,0,1,4.151,8.344,44.559,44.559,0,0,1,1.384,11.727h32.314c0-14.468-3.762-26.413-11.182-35.5S269.228,88.485,256.1,86.63V62.366h-17.89V86.295c-13.281,1.336-24.078,6.075-32.091,14.089s-12.076,18.435-12.076,30.974a46.553,46.553,0,0,0,3.523,18.9,41.962,41.962,0,0,0,9.84,13.81,67.237,67.237,0,0,0,15.151,10.4,198.338,198.338,0,0,0,19.118,8.39,396.2,396.2,0,0,1-43.222,12.134,560.212,560.212,0,0,1-56.474,9.436A331.036,331.036,0,0,1,106.1,206.589Z" transform="translate(-0.018)" fill="url(#linear-gradient)"/>
</svg>
